# xmcd
#
# Track frame offsets:
# 160
# 26795
# 62787
# 80780
# 98132
# 112187
# 137277
# 177807
# 202352
# 225472
#
# Disc length: 3404 seconds
#
# Revision: 0
# Processed by: cddbd v1.4PL0 Copyright (c) Steve Scherf et al.
# Submitted via: Audion 3.0.2 (http://www.panic.com/audion/)
#
DISCID=8b0d4a0a
DTITLE=Spike Robinson - Elaine Delmar - In town
DYEAR=1900
DGENRE=
TTITLE0=Too close for comfort
TTITLE1=You've changed
TTITLE2=Just one of those things
TTITLE3=In a sentimental mood
TTITLE4='s wonderful
TTITLE5=Get out of town
TTITLE6=Little girl blue
TTITLE7=Evertything I love
TTITLE8=Yound and foolish
TTITLE9=will  you still be mine
EXTD=
EXTT0=
EXTT1=
EXTT2=
EXTT3=
EXTT4=
EXTT5=
EXTT6=
EXTT7=
EXTT8=
EXTT9=
PLAYORDER=
